<?xml version="1.0" encoding="utf-8"?>
<!-- Generator: Adobe Illustrator 19.0.0, SVG Export Plug-In . SVG Version: 6.00 Build 0)  -->
<svg version="1.1"
	 id="svg2" inkscape:export-filename="/Users/humebc/Google Drive/Projects/SymPortal/SymPortalLogicDoc/figures/typeProfileAssignment2.png" sodipodi:docname="typeProfileAssignment2.svg" inkscape:version="0.92.2 5c3e80d, 2017-08-06" inkscape:export-ydpi="600" inkscape:export-xdpi="600" xmlns:inkscape="http://www.inkscape.org/namespaces/inkscape" xmlns:rdf="http://www.w3.org/1999/02/22-rdf-syntax-ns#" xmlns:dc="http://purl.org/dc/elements/1.1/" xmlns:sodipodi="http://sodipodi.sourceforge.net/DTD/sodipodi-0.dtd" xmlns:svg="http://www.w3.org/2000/svg" xmlns:cc="http://creativecommons.org/ns#"
	 xmlns="http://www.w3.org/2000/svg" xmlns:xlink="http://www.w3.org/1999/xlink" x="0px" y="0px" viewBox="-115 273.1 620.2 270.4"
	 style="enable-background:new -115 273.1 620.2 270.4;" xml:space="preserve">
<style type="text/css">
	.st0{enable-background:new    ;}
	.st1{font-family:'ArialMT';}
	.st2{font-size:16px;}
	.st3{font-family:'Arial-BoldItalicMT';}
	.st4{font-size:18px;}
	.st5{font-family:'CourierNewPSMT';}
	.st6{font-family:'CourierNewPS-BoldMT';}
	.st7{font-family:'TimesNewRomanPSMT';}
</style>
<sodipodi:namedview  inkscape:window-maximized="1" inkscape:window-y="1" inkscape:window-x="0" inkscape:window-height="775" inkscape:window-width="1440" fit-margin-bottom="0" fit-margin-right="0" inkscape:pageshadow="2" inkscape:current-layer="layer1" inkscape:pageopacity="0.0" inkscape:document-units="px" id="base" bordercolor="#666666" borderopacity="1.0" showgrid="false" inkscape:zoom="0.5" inkscape:cy="265.8473" inkscape:cx="279.27271" fit-margin-top="0" fit-margin-left="0" pagecolor="#ffffff">
	</sodipodi:namedview>
<text transform="matrix(1 0 0 1 -94.184 297.4617)" class="st0"><tspan x="0" y="0" class="st1 st2">Check to see which </tspan><tspan x="143.2" y="0" class="st3 st2">analysis_type </tspan><tspan x="252.6" y="0" class="st1 st2">objects’ DIVs cover the largest  </tspan><tspan x="0" y="19.2" class="st1 st2">proportion of sequences in </tspan><tspan x="193" y="19.2" class="st3 st2">clade_collection </tspan><tspan x="322" y="19.2" class="st1 st2">‘Example1’ </tspan></text>
<text transform="matrix(1 0 0 1 -97.8359 353.9984)" class="st0"><tspan x="0" y="0" class="st1 st4">Abundance of DIVs in </tspan><tspan x="179.1" y="0" class="st3 st4">clade_collection </tspan><tspan x="324.2" y="0" class="st1 st4">‘Example1’ </tspan></text>
<text transform="matrix(1 0 0 1 -97.8359 376.6146)" class="st5 st4">            C3   C3a  C3cc  C3ab  C3d   C3t   C3z Total</text>
<text transform="matrix(1 0 0 1 -97.8359 399.1146)" class="st5 st4">C3-C3a-C3cc </text>
<text transform="matrix(1 0 0 1 31.7852 399.1146)" class="st6 st4">751  210  180</text>
<text transform="matrix(1 0 0 1 172.208 399.1146)" class="st5 st4">   12    121   0     0   1141</text>
<text transform="matrix(1 0 0 1 -97.8359 421.8465)" class="st5 st4">C3-C3a-C3d  </text>
<text transform="matrix(1 0 0 1 31.7852 421.8465)" class="st6 st4">751</text>
<text transform="matrix(1 0 0 1 64.1905 421.8465)" class="st5 st4">  </text>
<text transform="matrix(1 0 0 1 85.794 421.8465)" class="st6 st4">210</text>
<text transform="matrix(1 0 0 1 118.1992 421.8465)" class="st5 st4">  180   12    </text>
<text transform="matrix(1 0 0 1 269.4239 421.8465)" class="st6 st4">121</text>
<text transform="matrix(1 0 0 1 301.8291 421.8465)" class="st5 st4">   0     0   1082</text>
<text transform="matrix(1 0 0 1 -97.8359 444.5784)" class="st5 st4">C3-C3a      </text>
<text transform="matrix(1 0 0 1 31.7852 444.5784)" class="st6 st4">751</text>
<text transform="matrix(1 0 0 1 64.1905 444.5784)" class="st5 st4">  </text>
<text transform="matrix(1 0 0 1 85.794 444.5784)" class="st6 st4">210</text>
<text transform="matrix(1 0 0 1 118.1992 444.5784)" class="st5 st4">  180   12    121   0     0   961</text>
<text transform="matrix(1 0 0 1 474.6572 444.5784)" class="st7 st4"> </text>
<text transform="matrix(1 0 0 1 -103.4652 488.7479)" class="st0"><tspan x="0" y="0" class="st3 st4">analysis_type </tspan><tspan x="123.1" y="0" class="st1 st4">C3-C3a-C3cc represents the largest proportion of  </tspan><tspan x="0" y="21.6" class="st3 st4">clade_collection </tspan><tspan x="145.1" y="21.6" class="st1 st4">Example1’s sequences and is associated to  </tspan><tspan x="0" y="43.2" class="st1 st4">the </tspan><tspan x="30" y="43.2" class="st3 st4">clade_collection</tspan><tspan x="170.1" y="43.2" class="st1 st4">. The other two </tspan><tspan x="295.1" y="43.2" class="st3 st4">analysis_type </tspan><tspan x="418.2" y="43.2" class="st1 st4">objects are not.</tspan></text>
</svg>
