<?xml version="1.0" encoding="utf-8"?>
<!-- Generator: Adobe Illustrator 19.0.0, SVG Export Plug-In . SVG Version: 6.00 Build 0)  -->
<svg version="1.1"
	 id="svg2" inkscape:export-filename="C:\Users\User\Google Drive\SymPortalMS\dbStructure.png" sodipodi:docname="dbTABLE.svg" inkscape:version="0.91 r13725" inkscape:export-ydpi="600" inkscape:export-xdpi="600" xmlns:inkscape="http://www.inkscape.org/namespaces/inkscape" xmlns:rdf="http://www.w3.org/1999/02/22-rdf-syntax-ns#" xmlns:dc="http://purl.org/dc/elements/1.1/" xmlns:svg="http://www.w3.org/2000/svg" xmlns:sodipodi="http://sodipodi.sourceforge.net/DTD/sodipodi-0.dtd" xmlns:cc="http://creativecommons.org/ns#"
	 xmlns="http://www.w3.org/2000/svg" xmlns:xlink="http://www.w3.org/1999/xlink" x="0px" y="0px" viewBox="-82 108.5 509 457.4"
	 style="enable-background:new -82 108.5 509 457.4;" xml:space="preserve">
<style type="text/css">
	.st0{font-family:'Arial-BoldItalicMT';}
	.st1{font-size:16px;}
	.st2{font-family:'ArialMT';}
	.st3{font-size:12px;}
	.st4{fill:none;stroke:#808080;stroke-width:2;stroke-dasharray:4,4;}
	.st5{stroke:#000000;}
	.st6{fill:#FFFFFF;stroke:#000000;}
	.st7{fill:none;stroke:#000000;}
</style>
<text transform="matrix(1 0 0 1 24.1884 523.6151)" class="st0 st1">data_set</text>
<text transform="matrix(1 0 0 1 -7.3751 430.4256)" class="st0 st1">data_set_sample</text>
<text transform="matrix(1 0 0 1 0.4158 452.1393)" class="st2 st3">dataSubmissionFrom</text>
<text transform="matrix(1 0 0 1 31.8593 346.6145)" class="st0 st1">clade_collection</text>
<text transform="matrix(1 0 0 1 39.08 364.7096)" class="st2 st3">dataSetSampleFrom</text>
<text transform="matrix(1 0 0 1 -48.7306 237.7961)" class="st0 st1">data_set_sample_sequence</text>
<text transform="matrix(1 0 0 1 -5.6017 257.321)" class="st2 st3">cladeCollectionFoundIn</text>
<text transform="matrix(1 0 0 1 -3.9288 286.321)" class="st2 st3">data_set_sample_from</text>
<text transform="matrix(1 0 0 1 -1.8053 272.321)" class="st2 st3">referenceSequenceOf</text>
<text transform="matrix(1 0 0 1 -20.2735 171.3816)" class="st0 st1">reference_sequence</text>
<rect id="rect16416" x="-56.1" y="145.9" class="st4" width="237.4" height="392.7"/>
<text transform="matrix(1 0 0 1 -29.6018 136.132)" class="st2 st1">Data submission objects</text>
<text transform="matrix(1 0 0 1 222.1859 347.6145)" class="st0 st1">cladeCollectionType</text>
<text transform="matrix(1 0 0 1 264.7987 370.1394)" class="st2 st3">typeProfileOf</text>
<text transform="matrix(1 0 0 1 236.9789 385.1394)" class="st2 st3">cladeCollectionFoundIn</text>
<text transform="matrix(1 0 0 1 258.3422 438.0754)" class="st0 st1">typeProfile</text>
<text transform="matrix(1 0 0 1 251.6683 460.3042)" class="st2 st3">dataAnalysisFrom</text>
<text transform="matrix(1 0 0 1 204.9904 523.3777)" class="st0 st1">dataSubmissionAnalysis</text>
<rect id="rect16538" x="189.4" y="325.4" class="st4" width="217.6" height="213.2"/>
<text transform="matrix(1 0 0 1 222.5919 316.7097)" class="st2 st1">Data analysis objects</text>
<path id="path10282-6-6-4" inkscape:connector-curvature="0" class="st5" d="M299.4,493.4c0.9,0,1.6,0.7,1.6,1.6s-0.7,1.6-1.6,1.6
	c-0.9,0-1.6-0.7-1.6-1.6S298.6,493.4,299.4,493.4z"/>
<path id="path11889-3-6-0" inkscape:connector-curvature="0" class="st6" d="M299.5,473.3l3.2,5.6l-6.4,0L299.5,473.3z"/>
<line class="st7" x1="299.4" y1="495" x2="299.4" y2="478.8"/>
<path id="path10282-6-6" inkscape:connector-curvature="0" class="st5" d="M299.7,412.9c0.9,0,1.6,0.7,1.6,1.6
	c0,0.9-0.7,1.6-1.6,1.6c-0.9,0-1.6-0.7-1.6-1.6C298.1,413.6,298.8,412.9,299.7,412.9z"/>
<path id="path11889-3-6" inkscape:connector-curvature="0" class="st6" d="M299.7,395.6l3.2,5.5h-6.4L299.7,395.6z"/>
<line class="st7" x1="299.7" y1="414.5" x2="299.7" y2="401.1"/>
<path id="path14078" inkscape:connector-curvature="0" class="st5" d="M169.9,342.8c0,0.9-0.7,1.6-1.6,1.6c-0.9,0-1.6-0.7-1.6-1.6
	c0-0.9,0.7-1.6,1.6-1.6C169.2,341.2,169.9,341.9,169.9,342.8z"/>
<path id="path14214" inkscape:connector-curvature="0" class="st6" d="M204.1,342.8l-5.5,3.2v-6.4L204.1,342.8z"/>
<line class="st7" x1="168.3" y1="342.8" x2="198.6" y2="342.8"/>
<path id="path10282" inkscape:connector-curvature="0" class="st5" d="M57.1,499.5c0.9,0,1.6,0.7,1.6,1.6s-0.7,1.6-1.6,1.6
	c-0.9,0-1.6-0.7-1.6-1.6S56.2,499.5,57.1,499.5z"/>
<path id="path11889" inkscape:connector-curvature="0" class="st6" d="M57.1,463.2l3.2,5.5h-6.4L57.1,463.2z"/>
<line class="st7" x1="57.1" y1="501.1" x2="57.1" y2="468.8"/>
<path id="path10282-6_1_" inkscape:connector-curvature="0" class="st5" d="M5.1,406.3c0.9,0,1.6,0.7,1.6,1.6c0,0.9-0.7,1.6-1.6,1.6
	s-1.6-0.7-1.6-1.6C3.5,407,4.2,406.3,5.1,406.3z"/>
<path id="path11889-3_1_" inkscape:connector-curvature="0" class="st6" d="M5.1,299.6l3.2,5.5H1.9L5.1,299.6z"/>
<line class="st7" x1="5.1" y1="407.9" x2="5.1" y2="305.1"/>
<g>
	<path id="path10282-6" inkscape:connector-curvature="0" class="st5" d="M94.1,406.3c0.9,0,1.6,0.7,1.6,1.6c0,0.9-0.7,1.6-1.6,1.6
		s-1.6-0.7-1.6-1.6C92.5,407,93.2,406.3,94.1,406.3z"/>
	<path id="path11889-3" inkscape:connector-curvature="0" class="st6" d="M94.1,376.2l3.2,5.5h-6.4L94.1,376.2z"/>
	<line class="st7" x1="94.1" y1="407.9" x2="94.1" y2="381.7"/>
</g>
<path id="path10282-6-5" inkscape:connector-curvature="0" class="st5" d="M94.1,319.7c0.9,0,1.6,0.7,1.6,1.6s-0.7,1.6-1.6,1.6
	s-1.6-0.7-1.6-1.6S93.2,319.7,94.1,319.7z"/>
<path id="path11889-3-0" inkscape:connector-curvature="0" class="st6" d="M94.1,299.6l3.2,5.5h-6.4L94.1,299.6z"/>
<line class="st7" x1="94.1" y1="321.3" x2="94.1" y2="305.1"/>
<g>
	<path id="path10282-6-5-4" inkscape:connector-curvature="0" class="st5" d="M57.1,187.2c-0.9,0-1.6-0.7-1.6-1.6s0.7-1.6,1.6-1.6
		c0.9,0,1.6,0.7,1.6,1.6S58,187.2,57.1,187.2z"/>
	<path id="path11889-3-0-1" inkscape:connector-curvature="0" class="st6" d="M57.1,218.9l-3.2-5.5h6.4L57.1,218.9z"/>
	<line class="st7" x1="57.1" y1="185.6" x2="57.1" y2="213.4"/>
</g>
</svg>
