<?xml version="1.0" encoding="utf-8"?>
<!-- Generator: Adobe Illustrator 19.0.0, SVG Export Plug-In . SVG Version: 6.00 Build 0)  -->
<svg version="1.1"
	 id="svg2" inkscape:export-filename="C:\Users\User\Google Drive\SymPortalMS\typeDicoArtefact.png" sodipodi:docname="typeDiscoArtefact.svg" inkscape:version="0.92.2 5c3e80d, 2017-08-06" inkscape:export-ydpi="600" inkscape:export-xdpi="600" xmlns:inkscape="http://www.inkscape.org/namespaces/inkscape" xmlns:rdf="http://www.w3.org/1999/02/22-rdf-syntax-ns#" xmlns:dc="http://purl.org/dc/elements/1.1/" xmlns:sodipodi="http://sodipodi.sourceforge.net/DTD/sodipodi-0.dtd" xmlns:svg="http://www.w3.org/2000/svg" xmlns:cc="http://creativecommons.org/ns#"
	 xmlns="http://www.w3.org/2000/svg" xmlns:xlink="http://www.w3.org/1999/xlink" x="0px" y="0px" viewBox="-234.9 220.3 603 636"
	 style="enable-background:new -234.9 220.3 603 636;" xml:space="preserve">
<style type="text/css">
	.st0{font-family:'ArialMT';}
	.st1{font-size:8px;}
	.st2{font-family:'Arial-BoldMT';}
	.st3{font-family:'CourierNewPSMT';}
	.st4{font-size:10px;}
	.st5{font-family:'Arial-BoldItalicMT';}
	.st6{font-family:'Arial-ItalicMT';}
	.st7{font-family:'CourierNewPS-BoldMT';}
	.st8{fill:none;stroke:#000000;}
	.st9{font-family:'Helvetica';}
	.st10{font-family:'Helvetica-Bold';}
	.st11{enable-background:new    ;}
	.st12{fill:#FFFFFF;stroke:#000000;}
	.st13{fill:#FFFFFF;stroke:#000000;enable-background:new    ;}
	.st14{fill:none;stroke:#231F20;stroke-miterlimit:10;}
</style>
<sodipodi:namedview  inkscape:window-maximized="1" inkscape:window-y="1" inkscape:window-x="0" inkscape:window-height="855" inkscape:window-width="1399" fit-margin-bottom="0" fit-margin-right="0" inkscape:pageshadow="2" inkscape:current-layer="layer1" inkscape:pageopacity="0.0" inkscape:document-units="px" id="base" bordercolor="#666666" borderopacity="1.0" showgrid="false" inkscape:zoom="0.98994949" inkscape:cy="482.4511" inkscape:cx="367.45239" fit-margin-top="0" fit-margin-left="0" pagecolor="#ffffff">
	</sodipodi:namedview>
<text transform="matrix(1 0 0 1 -225.253 272.484)" class="st0 st1">D1-D17-D6-</text>
<text transform="matrix(1 0 0 1 -182.153 272.484)" class="st2 st1">D17b</text>
<text transform="matrix(1 0 0 1 -217.253 282.5241)" class="st3 st1">                              D1    D17   D6    D17b  D2 </text>
<text transform="matrix(1 0 0 1 -225.253 292.5241)" class="st3 st1">supporting clade_collection 1  0.58  0.19  0.14  0.05  0.04</text>
<text transform="matrix(1 0 0 1 -225.253 302.5241)" class="st3 st1">supporting clade_collection 2  0.62  0.09  0.15  0.12  0.02</text>
<text transform="matrix(1 0 0 1 -225.253 312.5241)" class="st3 st1">supporting clade_collection 3  0.53  0.21  0.18  0.06  0.02</text>
<text transform="matrix(1 0 0 1 -225.253 322.5241)" class="st3 st1">supporting clade_collection 4  0.68  0.16  0.11  0.03  0.02</text>
<text transform="matrix(1 0 0 1 -225.253 332.5241)" class="st3 st1">supporting clade_collection 5  0.55  0.18  0.13  0.12  0.02</text>
<text transform="matrix(1 0 0 1 -225.253 342.5241)" class="st3 st1">supporting clade_collection 6  0.54  0.18  0.21  0.06  0.01</text>
<text transform="matrix(1 0 0 1 -225.253 352.5241)" class="st3 st1">supporting clade_collection 7  0.68  0.12  0.16  0.04  0.00</text>
<text transform="matrix(1 0 0 1 -225.253 362.5241)" class="st3 st1">supporting clade_collection 8  0.55  0.18  0.24  0.03  0.00</text>
<text transform="matrix(1 0 0 1 -225.253 372.524)" class="st3 st1">supporting clade_collection 9  0.54  0.15  0.28  0.03  0.00</text>
<text transform="matrix(1 0 0 1 75.7173 272.3829)" class="st0 st1">D1-D17-D6-</text>
<text transform="matrix(1 0 0 1 118.8173 272.3829)" class="st2 st1">D2</text>
<text transform="matrix(1 0 0 1 85.7173 282.423)" class="st3 st1">                              D1    D17   D6    D17b  D2 </text>
<text transform="matrix(1 0 0 1 75.7173 292.423)" class="st3 st1">supporting clade_collection 1  0.55  0.12  0.16  0.08  0.09</text>
<text transform="matrix(1 0 0 1 75.7173 302.423)" class="st3 st1">supporting clade_collection 2  0.62  0.19  0.14  0.02  0.03</text>
<text transform="matrix(1 0 0 1 75.7173 312.423)" class="st3 st1">supporting clade_collection 3  0.54  0.22  0.09  0.05  0.10</text>
<text transform="matrix(1 0 0 1 75.7173 322.423)" class="st3 st1">supporting clade_collection 4  0.68  0.12  0.13  0.02  0.05</text>
<text transform="matrix(1 0 0 1 75.7173 332.423)" class="st3 st1">supporting clade_collection 5  0.62  0.18  0.12  0.01  0.17</text>
<text transform="matrix(1 0 0 1 75.7173 342.423)" class="st3 st1">supporting clade_collection 6  0.54  0.20  0.18  0.02  0.06</text>
<text transform="matrix(1 0 0 1 75.7173 352.423)" class="st3 st1">supporting clade_collection 7  0.58  0.15  0.23  0.00  0.04</text>
<text transform="matrix(1 0 0 1 75.7173 362.423)" class="st3 st1">supporting clade_collection 8  0.62  0.22  0.13  0.00  0.03</text>
<text transform="matrix(1 0 0 1 75.7173 372.423)" class="st3 st1">supporting clade_collection 9  0.52  0.23  0.21  0.00  0.04</text>
<text transform="matrix(1 0 0 1 -226.4248 242.7696)" class="st0 st4">1. Closely related </text>
<text transform="matrix(1 0 0 1 -146.4248 242.7696)" class="st5 st4">analysis_type</text>
<text transform="matrix(1 0 0 1 -80.8248 242.7696)" class="st0 st4"> objects (those with profiles that only differ by unlocked DIVs) are considered in pairwise  </text>
<text transform="matrix(1 0 0 1 -226.4248 254.7696)" class="st0 st4">comparisons (unlocked DIVs are emboldened below). </text>
<text transform="matrix(1 0 0 1 -225.253 389.722)" class="st0 st4">2. A super profile (D1-D17-D6-</text>
<text transform="matrix(1 0 0 1 -89.653 389.722)" class="st2 st4">D17b-D2</text>
<text transform="matrix(1 0 0 1 -49.053 389.722)" class="st0 st4">) is considered for support. Unlocked DIVs are required at a relative abundance of 0.005.  </text>
<text transform="matrix(1 0 0 1 -225.253 401.722)" class="st0 st4">The supporting </text>
<text transform="matrix(1 0 0 1 -155.753 401.722)" class="st5 st4">clade_collection</text>
<text transform="matrix(1 0 0 1 -77.953 401.722)" class="st0 st4"> objects with the required relative abundances of the super type DIVs are emboldened below.</text>
<text transform="matrix(1 0 0 1 73.8954 436.7868)" class="st0 st4">3. If support is found, a new </text>
<text transform="matrix(1 0 0 1 199.4954 436.7868)" class="st5 st4">analysis_type</text>
<text transform="matrix(1 0 0 1 265.0954 436.7868)" class="st0 st4"> is created. </text>
<text transform="matrix(1 0 0 1 -225.4092 633.6273)" class="st0 st4">4. Support for the compared </text>
<text transform="matrix(1 0 0 1 -98.1092 633.6273)" class="st5 st4">analysis_type</text>
<text transform="matrix(1 0 0 1 -32.5092 633.6273)" class="st0 st4"> objects is re-assessed. If support still exists, the </text>
<text transform="matrix(1 0 0 1 184.1908 633.6273)" class="st5 st4">analysis_type</text>
<text transform="matrix(1 0 0 1 249.7908 633.6273)" class="st0 st4"> objects remain.  </text>
<text transform="matrix(1 0 0 1 -225.4092 645.6273)" class="st0 st4">Else, they are deleted. </text>
<text transform="matrix(1 0 0 1 -225.6241 742.3416)" class="st0 st4">5. </text>
<text transform="matrix(1 0 0 1 -214.5241 742.3416)" class="st5 st4">clade_collection</text>
<text transform="matrix(1 0 0 1 -136.7241 742.3416)" class="st0 st4"> objects that are no longer supporting an </text>
<text transform="matrix(1 0 0 1 45.0759 742.3416)" class="st5 st4">analysis_type</text>
<text transform="matrix(1 0 0 1 110.6759 742.3416)" class="st0 st4"> are re-assigned to the closest related  </text>
<text transform="matrix(1 0 0 1 -225.6241 754.3416)" class="st0 st4">existing </text>
<text transform="matrix(1 0 0 1 -188.9241 754.3416)" class="st5 st4">analysis_type</text>
<text transform="matrix(1 0 0 1 -123.3241 754.3416)" class="st0 st4"> or a new </text>
<text transform="matrix(1 0 0 1 -79.4241 754.3416)" class="st5 st4">analysis_type</text>
<text transform="matrix(1 0 0 1 -13.8241 754.3416)" class="st0 st4">, whichever best represents the </text>
<text transform="matrix(1 0 0 1 127.8759 754.3416)" class="st5 st4">clade_collection </text>
<text transform="matrix(1 0 0 1 208.4759 754.3416)" class="st0 st4">objects  </text>
<text transform="matrix(1 0 0 1 -225.6241 766.3416)" class="st0 st4">(DIVs that are found in common and above the 0.03 </text>
<text transform="matrix(1 0 0 1 6.7759 766.3416)" class="st6 st4">withinCladeCutoff </text>
<text transform="matrix(1 0 0 1 87.8759 766.3416)" class="st0 st4">are emboldened below). </text>
<text transform="matrix(1 0 0 1 -225.253 416.3736)" class="st0 st1">D1-D17-D6-</text>
<text transform="matrix(1 0 0 1 -182.153 416.3736)" class="st2 st1">D17b-D2</text>
<text transform="matrix(1 0 0 1 -215.253 426.4137)" class="st3 st1">                               D1    D17   D6    D17b  D2 </text>
<text transform="matrix(1 0 0 1 -225.253 436.3107)" class="st7 st1">supporting clade_collection</text>
<text transform="matrix(1 0 0 1 -95.653 436.3107)" class="st3 st1"> </text>
<text transform="matrix(1 0 0 1 -90.853 436.3107)" class="st7 st1">1a  0.58  0.19  0.14  0.05  0.04</text>
<text transform="matrix(1 0 0 1 -225.253 446.3107)" class="st7 st1">supporting clade_collection 2a  0.62  0.09  0.15  0.12  0.02</text>
<text transform="matrix(1 0 0 1 -225.253 456.3107)" class="st7 st1">supporting clade_collection 3a  0.53  0.21  0.18  0.06  0.02</text>
<text transform="matrix(1 0 0 1 -225.253 466.3107)" class="st7 st1">supporting clade_collection 4a  0.68  0.16  0.11  0.03  0.02</text>
<text transform="matrix(1 0 0 1 -225.253 476.3107)" class="st7 st1">supporting clade_collection 5a  0.55  0.18  0.13  0.12  0.02</text>
<text transform="matrix(1 0 0 1 -225.253 486.3107)" class="st7 st1">supporting clade_collection 6a  0.54  0.18  0.21  0.06  0.01</text>
<text transform="matrix(1 0 0 1 -225.253 496.4137)" class="st3 st1">supporting clade_collection 7a  0.68  0.12  0.16  0.04  0.00</text>
<text transform="matrix(1 0 0 1 -225.253 506.4137)" class="st3 st1">supporting clade_collection 8a  0.55  0.18  0.24  0.03  0.00</text>
<text transform="matrix(1 0 0 1 -225.253 516.4137)" class="st3 st1">supporting clade_collection 9a  0.54  0.15  0.28  0.03  0.00</text>
<text transform="matrix(1 0 0 1 -225.253 526.3107)" class="st7 st1">supporting clade_collection 1b  0.55  0.12  0.16  0.08  0.09</text>
<text transform="matrix(1 0 0 1 -225.253 536.3107)" class="st7 st1">supporting clade_collection 2b  0.62  0.19  0.14  0.02  0.03</text>
<text transform="matrix(1 0 0 1 -225.253 546.3107)" class="st7 st1">supporting clade_collection 3b  0.54  0.22  0.09  0.05  0.10</text>
<text transform="matrix(1 0 0 1 -225.253 556.3107)" class="st7 st1">supporting clade_collection 4b  0.68  0.12  0.13  0.02  0.05</text>
<text transform="matrix(1 0 0 1 -225.253 566.3107)" class="st7 st1">supporting clade_collection 5b  0.62  0.18  0.12  0.01  0.17</text>
<text transform="matrix(1 0 0 1 -225.253 576.3107)" class="st7 st1">supporting clade_collection 6b  0.54  0.20  0.18  0.02  0.06</text>
<text transform="matrix(1 0 0 1 -225.253 586.4137)" class="st3 st1">supporting clade_collection 7b  0.58  0.15  0.23  0.00  0.04</text>
<text transform="matrix(1 0 0 1 -225.253 596.4137)" class="st3 st1">supporting clade_collection 8b  0.62  0.22  0.13  0.00  0.03</text>
<text transform="matrix(1 0 0 1 -225.253 606.4137)" class="st3 st1">supporting clade_collection 9b  0.52  0.23  0.21  0.00  0.04</text>
<path id="path11116" inkscape:connector-curvature="0" class="st8" d="M66.9,429.9V487"/>
<path id="path11118" inkscape:connector-curvature="0" class="st8" d="M66.9,521.4v54.9"/>
<text transform="matrix(1 0 0 1 93.8043 506.0045)" class="st0 st1">D1-D17-D6-D17b-D2</text>
<text transform="matrix(1 0 0 1 -225.253 660.3054)" class="st9 st1">D1-D17-D6-</text>
<text transform="matrix(1 0 0 1 -182.1319 660.3054)" class="st10 st1">D17b</text>
<text transform="matrix(1 0 0 1 -213.253 670.3453)" class="st3 st1">                              D1    D17   D6    D17b  D2 </text>
<text transform="matrix(1 0 0 1 -225.253 680.3453)" class="st3 st1">supporting clade_collection 7a  0.68  0.12  0.16  0.04  0.00</text>
<text transform="matrix(1 0 0 1 -225.253 690.3453)" class="st3 st1">supporting clade_collection 8a  0.55  0.18  0.24  0.03  0.00</text>
<text transform="matrix(1 0 0 1 -225.253 700.3453)" class="st3 st1">supporting clade_collection 9a  0.54  0.15  0.28  0.03  0.00</text>
<text transform="matrix(1 0 0 1 75.7173 660.1569)" class="st9 st1">D1-D17-D6-</text>
<text transform="matrix(1 0 0 1 118.8384 660.1569)" class="st10 st1">D2</text>
<text transform="matrix(1 0 0 1 89.7173 670.197)" class="st3 st1">                              D1    D17   D6    D17b  D2 </text>
<text transform="matrix(1 0 0 1 75.7173 680.197)" class="st3 st1">supporting clade_collection 7b  0.58  0.15  0.23  0.00  0.04</text>
<text transform="matrix(1 0 0 1 75.7173 690.197)" class="st3 st1">supporting clade_collection 8b  0.62  0.22  0.13  0.00  0.03</text>
<text transform="matrix(1 0 0 1 75.7173 700.197)" class="st3 st1">supporting clade_collection 9b  0.52  0.23  0.21  0.00  0.04</text>
<text transform="matrix(1 0 0 1 -14.8116 717.1989)" class="st0 st4">Support &lt; 4: </text>
<text transform="matrix(1 0 0 1 42.6884 717.1989)" class="st5 st4">analysis_types</text>
<text transform="matrix(1 0 0 1 113.8884 717.1989)" class="st0 st4"> are deleted</text>
<text transform="matrix(1 0 0 1 -225.253 776.5164)" class="st9 st1"> </text>
<text transform="matrix(1 0 0 1 -220.253 786.5562)" class="st7 st1">                               D1    D17   D6</text>
<text transform="matrix(1 0 0 1 -4.2178 786.5562)" class="st3 st1">    D17b  D2 </text>
<text transform="matrix(1 0 0 1 -225.253 796.6599)" class="st3 st1">supporting clade_collection 7a  </text>
<text transform="matrix(1 0 0 1 -76.4287 796.6599)" class="st7 st1">0.68  0.12  0.16</text>
<text transform="matrix(1 0 0 1 0.3838 796.6599)" class="st3 st1">  0.04  0.00</text>
<text transform="matrix(1 0 0 1 -225.253 806.7634)" class="st3 st1">supporting clade_collection 8a  </text>
<text transform="matrix(1 0 0 1 -76.4287 806.7634)" class="st7 st1">0.55  0.18  0.24</text>
<text transform="matrix(1 0 0 1 0.3838 806.7634)" class="st3 st1">  0.03  0.00</text>
<text transform="matrix(1 0 0 1 -225.253 816.866)" class="st3 st1">supporting clade_collection 9a  </text>
<text transform="matrix(1 0 0 1 -76.4287 816.866)" class="st7 st1">0.54  0.15  0.28</text>
<text transform="matrix(1 0 0 1 0.3838 816.866)" class="st3 st1">  0.03  0.00</text>
<text transform="matrix(1 0 0 1 -225.253 826.9694)" class="st3 st1">supporting clade_collection 7b  </text>
<text transform="matrix(1 0 0 1 -76.4287 826.9694)" class="st7 st1">0.58  0.15  0.23</text>
<text transform="matrix(1 0 0 1 0.3838 826.9694)" class="st3 st1">  0.00  0.04</text>
<text transform="matrix(1 0 0 1 -225.253 837.072)" class="st3 st1">supporting clade_collection 8b  </text>
<text transform="matrix(1 0 0 1 -76.4287 837.072)" class="st7 st1">0.62  0.22  0.13</text>
<text transform="matrix(1 0 0 1 0.3838 837.072)" class="st3 st1">  0.00  0.03</text>
<text transform="matrix(1 0 0 1 -225.253 847.1754)" class="st3 st1">supporting clade_collection 9b  </text>
<text transform="matrix(1 0 0 1 -76.4287 847.1754)" class="st7 st1">0.52  0.23  0.21</text>
<text transform="matrix(1 0 0 1 0.3838 847.1754)" class="st3 st1">  0.00  0.04</text>
<path id="path11579" inkscape:connector-curvature="0" class="st8" d="M67.5,792.1v53.7"/>
<text transform="matrix(1 0 0 1 103.2178 821.8151)" class="st9 st1">D1-D17-D6</text>
<path class="st11" d="M-120,110.3"/>
<path id="path11609" inkscape:connector-curvature="0" class="st12" d="M98.8,818.9l-5.5,3.2v-6.4L98.8,818.9z"/>
<path id="path11599" inkscape:connector-curvature="0" class="st12" d="M98.9,818.9"/>
<path class="st13" d="M-120,110.3"/>
<path id="path11879" inkscape:connector-curvature="0" class="st12" d="M131,489.2"/>
<path class="st13" d="M-120,110.3"/>
<g>
	<path id="path11889-7" inkscape:connector-curvature="0" class="st12" d="M131,517l3.2,5.5h-6.4L131,517z"/>
	<path id="path11879-1" inkscape:connector-curvature="0" class="st12" d="M131,516.8"/>
	<polyline class="st14" points="66.9,548.8 131,548.8 131,522.5 	"/>
</g>
<g>
	<path id="path11889" inkscape:connector-curvature="0" class="st12" d="M131,489.1l-3.2-5.5h6.4L131,489.1z"/>
	<polyline class="st14" points="66.9,456.3 131,456.3 131,483.6 	"/>
</g>
<line class="st14" x1="93.3" y1="818.9" x2="67.5" y2="818.9"/>
</svg>
