<?xml version="1.0" encoding="utf-8"?>
<!-- Generator: Adobe Illustrator 19.0.0, SVG Export Plug-In . SVG Version: 6.00 Build 0)  -->
<svg version="1.1"
	 id="svg2" inkscape:export-filename="C:\Users\User\Google Drive\SymPortalMS\typeDicoArtefact.png" sodipodi:docname="typeDiscoArtefact.svg" inkscape:version="0.92.2 5c3e80d, 2017-08-06" inkscape:export-ydpi="600" inkscape:export-xdpi="600" xmlns:inkscape="http://www.inkscape.org/namespaces/inkscape" xmlns:rdf="http://www.w3.org/1999/02/22-rdf-syntax-ns#" xmlns:dc="http://purl.org/dc/elements/1.1/" xmlns:sodipodi="http://sodipodi.sourceforge.net/DTD/sodipodi-0.dtd" xmlns:svg="http://www.w3.org/2000/svg" xmlns:cc="http://creativecommons.org/ns#"
	 xmlns="http://www.w3.org/2000/svg" xmlns:xlink="http://www.w3.org/1999/xlink" x="0px" y="0px" viewBox="-120 110.3 610.1 631.1"
	 style="enable-background:new -120 110.3 610.1 631.1;" xml:space="preserve">
<style type="text/css">
	.st0{enable-background:new    ;}
	.st1{font-family:'ArialMT';}
	.st2{font-size:8px;}
	.st3{font-family:'Arial-BoldMT';}
	.st4{font-family:'CourierNewPSMT';}
	.st5{font-size:10px;}
	.st6{font-family:'Arial-BoldItalicMT';}
	.st7{font-family:'Arial-ItalicMT';}
	.st8{font-family:'CourierNewPS-BoldMT';}
	.st9{fill:none;stroke:#000000;}
	.st10{font-family:'Helvetica';}
	.st11{font-family:'Helvetica-Bold';}
	.st12{fill:none;}
	.st13{fill:#FFFFFF;stroke:#000000;}
	.st14{fill:none;stroke:#231F20;stroke-miterlimit:10;}
	.st15{stroke:#231F20;stroke-miterlimit:10;}
</style>
<sodipodi:namedview  inkscape:window-maximized="1" inkscape:window-y="1" inkscape:window-x="0" inkscape:window-height="855" inkscape:window-width="1399" fit-margin-bottom="0" fit-margin-right="0" inkscape:pageshadow="2" inkscape:current-layer="layer1" inkscape:pageopacity="0.0" inkscape:document-units="px" id="base" bordercolor="#666666" borderopacity="1.0" showgrid="false" inkscape:zoom="0.98994949" inkscape:cy="482.4511" inkscape:cx="367.45239" fit-margin-top="0" fit-margin-left="0" pagecolor="#ffffff">
	</sodipodi:namedview>
<text transform="matrix(1 0 0 1 -105.253 162.194)" class="st0"><tspan x="0" y="0" class="st1 st2">D1-D17-D6-</tspan><tspan x="43.1" y="0" class="st3 st2">D17b</tspan></text>
<text transform="matrix(1 0 0 1 -97.253 172.2341)" class="st4 st2">                              D1    D17   D6    D17b  D2 </text>
<text transform="matrix(1 0 0 1 -105.253 182.2341)" class="st4 st2">supporting clade_collection 1  0.58  0.19  0.14  0.05  0.04</text>
<text transform="matrix(1 0 0 1 -105.253 192.2341)" class="st4 st2">supporting clade_collection 2  0.62  0.09  0.15  0.12  0.02</text>
<text transform="matrix(1 0 0 1 -105.253 202.2341)" class="st4 st2">supporting clade_collection 3  0.53  0.21  0.18  0.06  0.02</text>
<text transform="matrix(1 0 0 1 -105.253 212.2341)" class="st4 st2">supporting clade_collection 4  0.68  0.16  0.11  0.03  0.02</text>
<text transform="matrix(1 0 0 1 -105.253 222.2341)" class="st4 st2">supporting clade_collection 5  0.55  0.18  0.13  0.12  0.02</text>
<text transform="matrix(1 0 0 1 -105.253 232.2341)" class="st4 st2">supporting clade_collection 6  0.54  0.18  0.21  0.06  0.01</text>
<text transform="matrix(1 0 0 1 -105.253 242.2341)" class="st4 st2">supporting clade_collection 7  0.68  0.12  0.16  0.04  0.00</text>
<text transform="matrix(1 0 0 1 -105.253 252.2341)" class="st4 st2">supporting clade_collection 8  0.55  0.18  0.24  0.03  0.00</text>
<text transform="matrix(1 0 0 1 -105.253 262.234)" class="st4 st2">supporting clade_collection 9  0.54  0.15  0.28  0.03  0.00</text>
<text transform="matrix(1 0 0 1 195.7173 162.0929)" class="st0"><tspan x="0" y="0" class="st1 st2">D1-D17-D6-</tspan><tspan x="43.1" y="0" class="st3 st2">D2</tspan></text>
<text transform="matrix(1 0 0 1 205.7173 172.133)" class="st4 st2">                              D1    D17   D6    D17b  D2 </text>
<text transform="matrix(1 0 0 1 195.7173 182.133)" class="st4 st2">supporting clade_collection 1  0.55  0.12  0.16  0.08  0.09</text>
<text transform="matrix(1 0 0 1 195.7173 192.133)" class="st4 st2">supporting clade_collection 2  0.62  0.19  0.14  0.02  0.03</text>
<text transform="matrix(1 0 0 1 195.7173 202.133)" class="st4 st2">supporting clade_collection 3  0.54  0.22  0.09  0.05  0.10</text>
<text transform="matrix(1 0 0 1 195.7173 212.133)" class="st4 st2">supporting clade_collection 4  0.68  0.12  0.13  0.02  0.05</text>
<text transform="matrix(1 0 0 1 195.7173 222.133)" class="st4 st2">supporting clade_collection 5  0.62  0.18  0.12  0.01  0.17</text>
<text transform="matrix(1 0 0 1 195.7173 232.133)" class="st4 st2">supporting clade_collection 6  0.54  0.20  0.18  0.02  0.06</text>
<text transform="matrix(1 0 0 1 195.7173 242.133)" class="st4 st2">supporting clade_collection 7  0.58  0.15  0.23  0.00  0.04</text>
<text transform="matrix(1 0 0 1 195.7173 252.133)" class="st4 st2">supporting clade_collection 8  0.62  0.22  0.13  0.00  0.03</text>
<text transform="matrix(1 0 0 1 195.7173 262.133)" class="st4 st2">supporting clade_collection 9  0.52  0.23  0.21  0.00  0.04</text>
<text transform="matrix(1 0 0 1 -106.4248 132.4796)" class="st0"><tspan x="0" y="0" class="st1 st5">1. Closely related </tspan><tspan x="80" y="0" class="st6 st5">analysis_type</tspan><tspan x="145.6" y="0" class="st1 st5"> objects (those with profiles that only differ by unlocked DIVs) are considered in pairwise  </tspan><tspan x="0" y="12" class="st1 st5">comparisons (unlocked DIVs are emboldened below). </tspan></text>
<text transform="matrix(1 0 0 1 -105.253 279.432)" class="st0"><tspan x="0" y="0" class="st1 st5">2. A super profile (D1-D17-D6-</tspan><tspan x="135.6" y="0" class="st3 st5">D17b-D2</tspan><tspan x="176.2" y="0" class="st1 st5">) is considered for support. Unlocked DIVs are required at a relative abundance of 0.005.  </tspan><tspan x="0" y="12" class="st1 st5">The supporting </tspan><tspan x="69.5" y="12" class="st6 st5">clade_collection</tspan><tspan x="147.3" y="12" class="st1 st5"> objects with the required relative abundances of the super type DIVs are emboldened below.</tspan></text>
<text transform="matrix(1 0 0 1 193.8954 326.4968)" class="st0"><tspan x="0" y="0" class="st1 st5">3. If support is found, a new </tspan><tspan x="125.6" y="0" class="st6 st5">analysis_type</tspan><tspan x="191.2" y="0" class="st1 st5"> is created. </tspan></text>
<text transform="matrix(1 0 0 1 -105.4092 523.3372)" class="st0"><tspan x="0" y="0" class="st1 st5">4. Support for the compared </tspan><tspan x="127.3" y="0" class="st6 st5">analysis_type</tspan><tspan x="192.9" y="0" class="st1 st5"> objects is re-assessed. If support still exists, the </tspan><tspan x="409.6" y="0" class="st6 st5">analysis_type</tspan><tspan x="475.2" y="0" class="st1 st5"> objects remain.  </tspan><tspan x="0" y="12" class="st1 st5">Else, they are deleted. </tspan></text>
<text transform="matrix(1 0 0 1 -105.6241 632.0515)" class="st0"><tspan x="0" y="0" class="st1 st5">5. </tspan><tspan x="11.1" y="0" class="st6 st5">clade_collection</tspan><tspan x="88.9" y="0" class="st1 st5"> objects that are no longer supporting an </tspan><tspan x="270.7" y="0" class="st6 st5">analysis_type</tspan><tspan x="336.3" y="0" class="st1 st5"> are re-assigned to the closest related  </tspan><tspan x="0" y="12" class="st1 st5">existing </tspan><tspan x="36.7" y="12" class="st6 st5">analysis_type</tspan><tspan x="102.3" y="12" class="st1 st5"> or a new </tspan><tspan x="146.2" y="12" class="st6 st5">analysis_type</tspan><tspan x="211.8" y="12" class="st1 st5">, whichever best represents the </tspan><tspan x="353.5" y="12" class="st6 st5">clade_collection </tspan><tspan x="434.1" y="12" class="st1 st5">objects  </tspan><tspan x="0" y="24" class="st1 st5">(DIVs that are found in common and above the 0.03 </tspan><tspan x="232.4" y="24" class="st7 st5">withinCladeCutoff </tspan><tspan x="313.5" y="24" class="st1 st5">are emboldened below). </tspan></text>
<text transform="matrix(1 0 0 1 -105.253 306.0836)" class="st0"><tspan x="0" y="0" class="st1 st2">D1-D17-D6-</tspan><tspan x="43.1" y="0" class="st3 st2">D17b-D2</tspan></text>
<text transform="matrix(1 0 0 1 -95.253 316.1237)" class="st4 st2">                               D1    D17   D6    D17b  D2 </text>
<text transform="matrix(1 0 0 1 -105.253 326.0207)" class="st0"><tspan x="0" y="0" class="st8 st2">supporting clade_collection</tspan><tspan x="129.6" y="0" class="st4 st2"> </tspan><tspan x="134.4" y="0" class="st8 st2">1a  0.58  0.19  0.14  0.05  0.04</tspan></text>
<text transform="matrix(1 0 0 1 -105.253 336.0207)" class="st8 st2">supporting clade_collection 2a  0.62  0.09  0.15  0.12  0.02</text>
<text transform="matrix(1 0 0 1 -105.253 346.0207)" class="st8 st2">supporting clade_collection 3a  0.53  0.21  0.18  0.06  0.02</text>
<text transform="matrix(1 0 0 1 -105.253 356.0207)" class="st8 st2">supporting clade_collection 4a  0.68  0.16  0.11  0.03  0.02</text>
<text transform="matrix(1 0 0 1 -105.253 366.0207)" class="st8 st2">supporting clade_collection 5a  0.55  0.18  0.13  0.12  0.02</text>
<text transform="matrix(1 0 0 1 -105.253 376.0207)" class="st8 st2">supporting clade_collection 6a  0.54  0.18  0.21  0.06  0.01</text>
<text transform="matrix(1 0 0 1 -105.253 386.1237)" class="st4 st2">supporting clade_collection 7a  0.68  0.12  0.16  0.04  0.00</text>
<text transform="matrix(1 0 0 1 -105.253 396.1237)" class="st4 st2">supporting clade_collection 8a  0.55  0.18  0.24  0.03  0.00</text>
<text transform="matrix(1 0 0 1 -105.253 406.1237)" class="st4 st2">supporting clade_collection 9a  0.54  0.15  0.28  0.03  0.00</text>
<text transform="matrix(1 0 0 1 -105.253 416.0207)" class="st8 st2">supporting clade_collection 1b  0.55  0.12  0.16  0.08  0.09</text>
<text transform="matrix(1 0 0 1 -105.253 426.0207)" class="st8 st2">supporting clade_collection 2b  0.62  0.19  0.14  0.02  0.03</text>
<text transform="matrix(1 0 0 1 -105.253 436.0207)" class="st8 st2">supporting clade_collection 3b  0.54  0.22  0.09  0.05  0.10</text>
<text transform="matrix(1 0 0 1 -105.253 446.0207)" class="st8 st2">supporting clade_collection 4b  0.68  0.12  0.13  0.02  0.05</text>
<text transform="matrix(1 0 0 1 -105.253 456.0207)" class="st8 st2">supporting clade_collection 5b  0.62  0.18  0.12  0.01  0.17</text>
<text transform="matrix(1 0 0 1 -105.253 466.0207)" class="st8 st2">supporting clade_collection 6b  0.54  0.20  0.18  0.02  0.06</text>
<text transform="matrix(1 0 0 1 -105.253 476.1237)" class="st4 st2">supporting clade_collection 7b  0.58  0.15  0.23  0.00  0.04</text>
<text transform="matrix(1 0 0 1 -105.253 486.1237)" class="st4 st2">supporting clade_collection 8b  0.62  0.22  0.13  0.00  0.03</text>
<text transform="matrix(1 0 0 1 -105.253 496.1237)" class="st4 st2">supporting clade_collection 9b  0.52  0.23  0.21  0.00  0.04</text>
<path id="path11116" inkscape:connector-curvature="0" class="st9" d="M186.9,319.6v57.1"/>
<path id="path11118" inkscape:connector-curvature="0" class="st9" d="M186.9,411.1v54.9"/>
<text transform="matrix(1 0 0 1 213.8043 395.7145)" class="st1 st2">D1-D17-D6-D17b-D2</text>
<text transform="matrix(1 0 0 1 -105.253 550.0153)" class="st10 st2">D1-D17-D6-</text>
<text transform="matrix(1 0 0 1 -62.1319 550.0153)" class="st11 st2">D17b</text>
<text transform="matrix(1 0 0 1 -93.253 560.0553)" class="st4 st2">                              D1    D17   D6    D17b  D2 </text>
<text transform="matrix(1 0 0 1 -105.253 570.0553)" class="st4 st2">supporting clade_collection 7a  0.68  0.12  0.16  0.04  0.00</text>
<text transform="matrix(1 0 0 1 -105.253 580.0553)" class="st4 st2">supporting clade_collection 8a  0.55  0.18  0.24  0.03  0.00</text>
<text transform="matrix(1 0 0 1 -105.253 590.0553)" class="st4 st2">supporting clade_collection 9a  0.54  0.15  0.28  0.03  0.00</text>
<text transform="matrix(1 0 0 1 195.7173 549.8669)" class="st10 st2">D1-D17-D6-</text>
<text transform="matrix(1 0 0 1 238.8384 549.8669)" class="st11 st2">D2</text>
<text transform="matrix(1 0 0 1 209.7173 559.9069)" class="st4 st2">                              D1    D17   D6    D17b  D2 </text>
<text transform="matrix(1 0 0 1 195.7173 569.9069)" class="st4 st2">supporting clade_collection 7b  0.58  0.15  0.23  0.00  0.04</text>
<text transform="matrix(1 0 0 1 195.7173 579.9069)" class="st4 st2">supporting clade_collection 8b  0.62  0.22  0.13  0.00  0.03</text>
<text transform="matrix(1 0 0 1 195.7173 589.9069)" class="st4 st2">supporting clade_collection 9b  0.52  0.23  0.21  0.00  0.04</text>
<text transform="matrix(1 0 0 1 105.1884 606.9089)" class="st0"><tspan x="0" y="0" class="st1 st5">Support &lt; 4: </tspan><tspan x="57.5" y="0" class="st6 st5">analysis_types</tspan><tspan x="128.7" y="0" class="st1 st5"> are deleted</tspan></text>
<text transform="matrix(1 0 0 1 -105.253 666.2263)" class="st10 st2"> </text>
<text transform="matrix(1 0 0 1 -100.253 676.2662)" class="st8 st2">                               D1    D17   D6</text>
<text transform="matrix(1 0 0 1 115.7822 676.2662)" class="st4 st2">    D17b  D2 </text>
<text transform="matrix(1 0 0 1 -105.253 686.3698)" class="st4 st2">supporting clade_collection 7a  </text>
<text transform="matrix(1 0 0 1 43.5713 686.3698)" class="st8 st2">0.68  0.12  0.16</text>
<text transform="matrix(1 0 0 1 120.3838 686.3698)" class="st4 st2">  0.04  0.00</text>
<text transform="matrix(1 0 0 1 -105.253 696.4733)" class="st4 st2">supporting clade_collection 8a  </text>
<text transform="matrix(1 0 0 1 43.5713 696.4733)" class="st8 st2">0.55  0.18  0.24</text>
<text transform="matrix(1 0 0 1 120.3838 696.4733)" class="st4 st2">  0.03  0.00</text>
<text transform="matrix(1 0 0 1 -105.253 706.5759)" class="st4 st2">supporting clade_collection 9a  </text>
<text transform="matrix(1 0 0 1 43.5713 706.5759)" class="st8 st2">0.54  0.15  0.28</text>
<text transform="matrix(1 0 0 1 120.3838 706.5759)" class="st4 st2">  0.03  0.00</text>
<text transform="matrix(1 0 0 1 -105.253 716.6793)" class="st4 st2">supporting clade_collection 7b  </text>
<text transform="matrix(1 0 0 1 43.5713 716.6793)" class="st8 st2">0.58  0.15  0.23</text>
<text transform="matrix(1 0 0 1 120.3838 716.6793)" class="st4 st2">  0.00  0.04</text>
<text transform="matrix(1 0 0 1 -105.253 726.7819)" class="st4 st2">supporting clade_collection 8b  </text>
<text transform="matrix(1 0 0 1 43.5713 726.7819)" class="st8 st2">0.62  0.22  0.13</text>
<text transform="matrix(1 0 0 1 120.3838 726.7819)" class="st4 st2">  0.00  0.03</text>
<text transform="matrix(1 0 0 1 -105.253 736.8854)" class="st4 st2">supporting clade_collection 9b  </text>
<text transform="matrix(1 0 0 1 43.5713 736.8854)" class="st8 st2">0.52  0.23  0.21</text>
<text transform="matrix(1 0 0 1 120.3838 736.8854)" class="st4 st2">  0.00  0.04</text>
<path id="path11579" inkscape:connector-curvature="0" class="st9" d="M187.5,681.8v53.7"/>
<text transform="matrix(1 0 0 1 223.2178 711.525)" class="st10 st2">D1-D17-D6</text>
<path class="st12" d=""/>
<path id="path11609" inkscape:connector-curvature="0" class="st13" d="M218.8,708.6l-5.5,3.2v-6.4L218.8,708.6z"/>
<path id="path11599" inkscape:connector-curvature="0" class="st13" d="M218.9,708.6"/>
<path class="st12" d=""/>
<path id="path11879" inkscape:connector-curvature="0" class="st13" d="M251,378.9"/>
<path class="st12" d=""/>
<g>
	<path id="path11889-7" inkscape:connector-curvature="0" class="st13" d="M251,406.7l3.2,5.5h-6.4L251,406.7z"/>
	<path id="path11879-1" inkscape:connector-curvature="0" class="st13" d="M251,406.5"/>
	<polyline class="st14" points="186.9,438.5 251,438.5 251,412.2 	"/>
</g>
<g>
	<path id="path11889" inkscape:connector-curvature="0" class="st13" d="M251,378.8l-3.2-5.5h6.4L251,378.8z"/>
	<polyline class="st14" points="186.9,346 251,346 251,373.3 	"/>
</g>
<line class="st15" x1="213.3" y1="708.6" x2="187.5" y2="708.6"/>
</svg>
