<?xml version="1.0" encoding="utf-8"?>
<!-- Generator: Adobe Illustrator 19.0.0, SVG Export Plug-In . SVG Version: 6.00 Build 0)  -->
<svg version="1.1"
	 id="svg2" inkscape:export-filename="C:\Users\User\Google Drive\SymPortalMS\typeDicoArtefact.png" sodipodi:docname="typeDiscoArtefact.svg" inkscape:version="0.92.2 5c3e80d, 2017-08-06" inkscape:export-ydpi="600" inkscape:export-xdpi="600" xmlns:inkscape="http://www.inkscape.org/namespaces/inkscape" xmlns:rdf="http://www.w3.org/1999/02/22-rdf-syntax-ns#" xmlns:dc="http://purl.org/dc/elements/1.1/" xmlns:sodipodi="http://sodipodi.sourceforge.net/DTD/sodipodi-0.dtd" xmlns:svg="http://www.w3.org/2000/svg" xmlns:cc="http://creativecommons.org/ns#"
	 xmlns="http://www.w3.org/2000/svg" xmlns:xlink="http://www.w3.org/1999/xlink" x="0px" y="0px" viewBox="-124 108.4 603 636"
	 style="enable-background:new -124 108.4 603 636;" xml:space="preserve">
<style type="text/css">
	.st0{font-family:'ArialMT';}
	.st1{font-size:8px;}
	.st2{font-family:'Arial-BoldMT';}
	.st3{font-family:'CourierNewPSMT';}
	.st4{font-size:10px;}
	.st5{font-family:'Arial-BoldItalicMT';}
	.st6{font-family:'Arial-ItalicMT';}
	.st7{font-family:'CourierNewPS-BoldMT';}
	.st8{fill:none;stroke:#000000;}
	.st9{font-family:'Helvetica';}
	.st10{font-family:'Helvetica-Bold';}
	.st11{fill:#FFFFFF;stroke:#000000;}
	.st12{fill:none;stroke:#231F20;stroke-miterlimit:10;}
</style>
<text transform="matrix(1 0 0 1 -118.7974 158.4258)" class="st0 st1">D1-D17-D6-</text>
<text transform="matrix(1 0 0 1 -75.6974 158.4258)" class="st2 st1">D17b</text>
<text transform="matrix(1 0 0 1 -110.7974 168.4659)" class="st3 st1">                              D1    D17   D6    D17b  D2 </text>
<text transform="matrix(1 0 0 1 -118.7974 178.4659)" class="st3 st1">supporting clade_collection 1  0.58  0.19  0.14  0.05  0.04</text>
<text transform="matrix(1 0 0 1 -118.7974 188.4659)" class="st3 st1">supporting clade_collection 2  0.62  0.09  0.15  0.12  0.02</text>
<text transform="matrix(1 0 0 1 -118.7974 198.4659)" class="st3 st1">supporting clade_collection 3  0.53  0.21  0.18  0.06  0.02</text>
<text transform="matrix(1 0 0 1 -118.7974 208.4659)" class="st3 st1">supporting clade_collection 4  0.68  0.16  0.11  0.03  0.02</text>
<text transform="matrix(1 0 0 1 -118.7974 218.4659)" class="st3 st1">supporting clade_collection 5  0.55  0.18  0.13  0.12  0.02</text>
<text transform="matrix(1 0 0 1 -118.7974 228.4659)" class="st3 st1">supporting clade_collection 6  0.54  0.18  0.21  0.06  0.01</text>
<text transform="matrix(1 0 0 1 -118.7974 238.4659)" class="st3 st1">supporting clade_collection 7  0.68  0.12  0.16  0.04  0.00</text>
<text transform="matrix(1 0 0 1 -118.7974 248.4659)" class="st3 st1">supporting clade_collection 8  0.55  0.18  0.24  0.03  0.00</text>
<text transform="matrix(1 0 0 1 -118.7974 258.4658)" class="st3 st1">supporting clade_collection 9  0.54  0.15  0.28  0.03  0.00</text>
<text transform="matrix(1 0 0 1 182.1729 158.3247)" class="st0 st1">D1-D17-D6-</text>
<text transform="matrix(1 0 0 1 225.2729 158.3247)" class="st2 st1">D2</text>
<text transform="matrix(1 0 0 1 192.1729 168.3648)" class="st3 st1">                              D1    D17   D6    D17b  D2 </text>
<text transform="matrix(1 0 0 1 182.1729 178.3648)" class="st3 st1">supporting clade_collection 1  0.55  0.12  0.16  0.08  0.09</text>
<text transform="matrix(1 0 0 1 182.1729 188.3648)" class="st3 st1">supporting clade_collection 2  0.62  0.19  0.14  0.02  0.03</text>
<text transform="matrix(1 0 0 1 182.1729 198.3648)" class="st3 st1">supporting clade_collection 3  0.54  0.22  0.09  0.05  0.10</text>
<text transform="matrix(1 0 0 1 182.1729 208.3648)" class="st3 st1">supporting clade_collection 4  0.68  0.12  0.13  0.02  0.05</text>
<text transform="matrix(1 0 0 1 182.1729 218.3648)" class="st3 st1">supporting clade_collection 5  0.62  0.18  0.12  0.01  0.17</text>
<text transform="matrix(1 0 0 1 182.1729 228.3648)" class="st3 st1">supporting clade_collection 6  0.54  0.20  0.18  0.02  0.06</text>
<text transform="matrix(1 0 0 1 182.1729 238.3648)" class="st3 st1">supporting clade_collection 7  0.58  0.15  0.23  0.00  0.04</text>
<text transform="matrix(1 0 0 1 182.1729 248.3648)" class="st3 st1">supporting clade_collection 8  0.62  0.22  0.13  0.00  0.03</text>
<text transform="matrix(1 0 0 1 182.1729 258.3648)" class="st3 st1">supporting clade_collection 9  0.52  0.23  0.21  0.00  0.04</text>
<text transform="matrix(1 0 0 1 -119.9692 128.7114)" class="st0 st4">1. Closely related </text>
<text transform="matrix(1 0 0 1 -39.9692 128.7114)" class="st5 st4">analysis_type</text>
<text transform="matrix(1 0 0 1 25.6308 128.7114)" class="st0 st4"> objects (those with profiles that only differ by unlocked DIVs) are considered in pairwise  </text>
<text transform="matrix(1 0 0 1 -119.9692 140.7114)" class="st0 st4">comparisons (unlocked DIVs are emboldened below). </text>
<text transform="matrix(1 0 0 1 -118.7974 275.6638)" class="st0 st4">2. A super profile (D1-D17-D6-</text>
<text transform="matrix(1 0 0 1 16.8026 275.6638)" class="st2 st4">D17b-D2</text>
<text transform="matrix(1 0 0 1 57.4026 275.6638)" class="st0 st4">) is considered for support. Unlocked DIVs are required at a relative abundance of 0.005.  </text>
<text transform="matrix(1 0 0 1 -118.7974 287.6638)" class="st0 st4">The supporting </text>
<text transform="matrix(1 0 0 1 -49.2974 287.6638)" class="st5 st4">clade_collection</text>
<text transform="matrix(1 0 0 1 28.5026 287.6638)" class="st0 st4"> objects with the required relative abundances of the super type DIVs are emboldened below.</text>
<text transform="matrix(1 0 0 1 180.351 322.7286)" class="st0 st4">3. If support is found, a new </text>
<text transform="matrix(1 0 0 1 305.951 322.7286)" class="st5 st4">analysis_type</text>
<text transform="matrix(1 0 0 1 371.551 322.7286)" class="st0 st4"> is created. </text>
<text transform="matrix(1 0 0 1 -118.9536 519.5692)" class="st0 st4">4. Support for the compared </text>
<text transform="matrix(1 0 0 1 8.3464 519.5692)" class="st5 st4">analysis_type</text>
<text transform="matrix(1 0 0 1 73.9464 519.5692)" class="st0 st4"> objects is re-assessed. If support still exists, the </text>
<text transform="matrix(1 0 0 1 290.6464 519.5692)" class="st5 st4">analysis_type</text>
<text transform="matrix(1 0 0 1 356.2464 519.5692)" class="st0 st4"> objects remain.  </text>
<text transform="matrix(1 0 0 1 -118.9536 531.5692)" class="st0 st4">Else, they are deleted. </text>
<text transform="matrix(1 0 0 1 -119.1685 628.2834)" class="st0 st4">5. </text>
<text transform="matrix(1 0 0 1 -108.0685 628.2834)" class="st5 st4">clade_collection</text>
<text transform="matrix(1 0 0 1 -30.2685 628.2834)" class="st0 st4"> objects that are no longer supporting an </text>
<text transform="matrix(1 0 0 1 151.5315 628.2834)" class="st5 st4">analysis_type</text>
<text transform="matrix(1 0 0 1 217.1315 628.2834)" class="st0 st4"> are re-assigned to the closest related  </text>
<text transform="matrix(1 0 0 1 -119.1685 640.2834)" class="st0 st4">existing </text>
<text transform="matrix(1 0 0 1 -82.4685 640.2834)" class="st5 st4">analysis_type</text>
<text transform="matrix(1 0 0 1 -16.8685 640.2834)" class="st0 st4"> or a new </text>
<text transform="matrix(1 0 0 1 27.0315 640.2834)" class="st5 st4">analysis_type</text>
<text transform="matrix(1 0 0 1 92.6315 640.2834)" class="st0 st4">, whichever best represents the </text>
<text transform="matrix(1 0 0 1 234.3315 640.2834)" class="st5 st4">clade_collection </text>
<text transform="matrix(1 0 0 1 314.9315 640.2834)" class="st0 st4">objects  </text>
<text transform="matrix(1 0 0 1 -119.1685 652.2834)" class="st0 st4">(DIVs that are found in common and above the 0.03 </text>
<text transform="matrix(1 0 0 1 113.2315 652.2834)" class="st6 st4">withinCladeCutoff </text>
<text transform="matrix(1 0 0 1 194.3315 652.2834)" class="st0 st4">are emboldened below). </text>
<text transform="matrix(1 0 0 1 -118.7974 302.3154)" class="st0 st1">D1-D17-D6-</text>
<text transform="matrix(1 0 0 1 -75.6974 302.3154)" class="st2 st1">D17b-D2</text>
<text transform="matrix(1 0 0 1 -108.7974 312.3555)" class="st3 st1">                               D1    D17   D6    D17b  D2 </text>
<text transform="matrix(1 0 0 1 -118.7974 322.2525)" class="st7 st1">supporting clade_collection</text>
<text transform="matrix(1 0 0 1 15.6026 322.2525)" class="st7 st1">1a  0.58  0.19  0.14  0.05  0.04</text>
<text transform="matrix(1 0 0 1 -118.7974 332.2525)" class="st7 st1">supporting clade_collection 2a  0.62  0.09  0.15  0.12  0.02</text>
<text transform="matrix(1 0 0 1 -118.7974 342.2525)" class="st7 st1">supporting clade_collection 3a  0.53  0.21  0.18  0.06  0.02</text>
<text transform="matrix(1 0 0 1 -118.7974 352.2525)" class="st7 st1">supporting clade_collection 4a  0.68  0.16  0.11  0.03  0.02</text>
<text transform="matrix(1 0 0 1 -118.7974 362.2525)" class="st7 st1">supporting clade_collection 5a  0.55  0.18  0.13  0.12  0.02</text>
<text transform="matrix(1 0 0 1 -118.7974 372.2525)" class="st7 st1">supporting clade_collection 6a  0.54  0.18  0.21  0.06  0.01</text>
<text transform="matrix(1 0 0 1 -118.7974 382.3555)" class="st3 st1">supporting clade_collection 7a  0.68  0.12  0.16  0.04  0.00</text>
<text transform="matrix(1 0 0 1 -118.7974 392.3555)" class="st3 st1">supporting clade_collection 8a  0.55  0.18  0.24  0.03  0.00</text>
<text transform="matrix(1 0 0 1 -118.7974 402.3555)" class="st3 st1">supporting clade_collection 9a  0.54  0.15  0.28  0.03  0.00</text>
<text transform="matrix(1 0 0 1 -118.7974 412.2526)" class="st7 st1">supporting clade_collection 1b  0.55  0.12  0.16  0.08  0.09</text>
<text transform="matrix(1 0 0 1 -118.7974 422.2526)" class="st7 st1">supporting clade_collection 2b  0.62  0.19  0.14  0.02  0.03</text>
<text transform="matrix(1 0 0 1 -118.7974 432.2526)" class="st7 st1">supporting clade_collection 3b  0.54  0.22  0.09  0.05  0.10</text>
<text transform="matrix(1 0 0 1 -118.7974 442.2526)" class="st7 st1">supporting clade_collection 4b  0.68  0.12  0.13  0.02  0.05</text>
<text transform="matrix(1 0 0 1 -118.7974 452.2526)" class="st7 st1">supporting clade_collection 5b  0.62  0.18  0.12  0.01  0.17</text>
<text transform="matrix(1 0 0 1 -118.7974 462.2526)" class="st7 st1">supporting clade_collection 6b  0.54  0.20  0.18  0.02  0.06</text>
<text transform="matrix(1 0 0 1 -118.7974 472.3555)" class="st3 st1">supporting clade_collection 7b  0.58  0.15  0.23  0.00  0.04</text>
<text transform="matrix(1 0 0 1 -118.7974 482.3555)" class="st3 st1">supporting clade_collection 8b  0.62  0.22  0.13  0.00  0.03</text>
<text transform="matrix(1 0 0 1 -118.7974 492.3555)" class="st3 st1">supporting clade_collection 9b  0.52  0.23  0.21  0.00  0.04</text>
<path id="path11116" inkscape:connector-curvature="0" class="st8" d="M173.4,315.8v57.1"/>
<path id="path11118" inkscape:connector-curvature="0" class="st8" d="M173.4,407.3v54.9"/>
<text transform="matrix(1 0 0 1 200.2599 391.9463)" class="st0 st1">D1-D17-D6-D17b-D2</text>
<text transform="matrix(1 0 0 1 -118.7974 546.2473)" class="st9 st1">D1-D17-D6-</text>
<text transform="matrix(1 0 0 1 -75.6763 546.2473)" class="st10 st1">D17b</text>
<text transform="matrix(1 0 0 1 -106.7974 556.2871)" class="st3 st1">                              D1    D17   D6    D17b  D2 </text>
<text transform="matrix(1 0 0 1 -118.7974 566.2871)" class="st3 st1">supporting clade_collection 7a  0.68  0.12  0.16  0.04  0.00</text>
<text transform="matrix(1 0 0 1 -118.7974 576.2871)" class="st3 st1">supporting clade_collection 8a  0.55  0.18  0.24  0.03  0.00</text>
<text transform="matrix(1 0 0 1 -118.7974 586.2871)" class="st3 st1">supporting clade_collection 9a  0.54  0.15  0.28  0.03  0.00</text>
<text transform="matrix(1 0 0 1 182.1729 546.0988)" class="st9 st1">D1-D17-D6-</text>
<text transform="matrix(1 0 0 1 225.294 546.0988)" class="st10 st1">D2</text>
<text transform="matrix(1 0 0 1 196.1729 556.1389)" class="st3 st1">                              D1    D17   D6    D17b  D2 </text>
<text transform="matrix(1 0 0 1 182.1729 566.1389)" class="st3 st1">supporting clade_collection 7b  0.58  0.15  0.23  0.00  0.04</text>
<text transform="matrix(1 0 0 1 182.1729 576.1389)" class="st3 st1">supporting clade_collection 8b  0.62  0.22  0.13  0.00  0.03</text>
<text transform="matrix(1 0 0 1 182.1729 586.1389)" class="st3 st1">supporting clade_collection 9b  0.52  0.23  0.21  0.00  0.04</text>
<text transform="matrix(1 0 0 1 91.644 603.1407)" class="st0 st4">Support &lt; 4: </text>
<text transform="matrix(1 0 0 1 149.144 603.1407)" class="st5 st4">analysis_types</text>
<text transform="matrix(1 0 0 1 220.344 603.1407)" class="st0 st4"> are deleted</text>
<text transform="matrix(1 0 0 1 -113.7974 672.498)" class="st7 st1">                               D1    D17   D6</text>
<text transform="matrix(1 0 0 1 102.2378 672.498)" class="st3 st1">    D17b  D2 </text>
<text transform="matrix(1 0 0 1 -118.7974 682.6017)" class="st3 st1">supporting clade_collection 7a  </text>
<text transform="matrix(1 0 0 1 30.0269 682.6017)" class="st7 st1">0.68  0.12  0.16</text>
<text transform="matrix(1 0 0 1 106.8394 682.6017)" class="st3 st1">  0.04  0.00</text>
<text transform="matrix(1 0 0 1 -118.7974 692.7053)" class="st3 st1">supporting clade_collection 8a  </text>
<text transform="matrix(1 0 0 1 30.0269 692.7053)" class="st7 st1">0.55  0.18  0.24</text>
<text transform="matrix(1 0 0 1 106.8394 692.7053)" class="st3 st1">  0.03  0.00</text>
<text transform="matrix(1 0 0 1 -118.7974 702.8079)" class="st3 st1">supporting clade_collection 9a  </text>
<text transform="matrix(1 0 0 1 30.0269 702.8079)" class="st7 st1">0.54  0.15  0.28</text>
<text transform="matrix(1 0 0 1 106.8394 702.8079)" class="st3 st1">  0.03  0.00</text>
<text transform="matrix(1 0 0 1 -118.7974 712.9113)" class="st3 st1">supporting clade_collection 7b  </text>
<text transform="matrix(1 0 0 1 30.0269 712.9113)" class="st7 st1">0.58  0.15  0.23</text>
<text transform="matrix(1 0 0 1 106.8394 712.9113)" class="st3 st1">  0.00  0.04</text>
<text transform="matrix(1 0 0 1 -118.7974 723.0139)" class="st3 st1">supporting clade_collection 8b  </text>
<text transform="matrix(1 0 0 1 30.0269 723.0139)" class="st7 st1">0.62  0.22  0.13</text>
<text transform="matrix(1 0 0 1 106.8394 723.0139)" class="st3 st1">  0.00  0.03</text>
<text transform="matrix(1 0 0 1 -118.7974 733.1172)" class="st3 st1">supporting clade_collection 9b  </text>
<text transform="matrix(1 0 0 1 30.0269 733.1172)" class="st7 st1">0.52  0.23  0.21</text>
<text transform="matrix(1 0 0 1 106.8394 733.1172)" class="st3 st1">  0.00  0.04</text>
<path id="path11579" inkscape:connector-curvature="0" class="st8" d="M174,678v53.7"/>
<text transform="matrix(1 0 0 1 209.6734 707.757)" class="st9 st1">D1-D17-D6</text>
<path id="path11609" inkscape:connector-curvature="0" class="st11" d="M205.3,704.8l-5.5,3.2v-6.4L205.3,704.8z"/>
<g>
	<path id="path11889-7" inkscape:connector-curvature="0" class="st11" d="M237.5,402.9l3.2,5.5h-6.4L237.5,402.9z"/>
	<path id="path11879-1" inkscape:connector-curvature="0" class="st11" d="M237.5,402.7"/>
	<polyline class="st12" points="173.4,434.7 237.5,434.7 237.5,408.4 	"/>
</g>
<g>
	<path id="path11889" inkscape:connector-curvature="0" class="st11" d="M237.5,375l-3.2-5.5h6.4L237.5,375z"/>
	<polyline class="st12" points="173.4,342.2 237.5,342.2 237.5,369.5 	"/>
</g>
<line class="st12" x1="199.8" y1="704.8" x2="174" y2="704.8"/>
</svg>
